# xmcd CD database file
#
# Track frame offsets:
#	150
#	16820
#	36680
#	54002
#	73123
#	94096
#	111049
#	131708
#	151192
#	171323
#	191397
#	212071
#	231305
#	254602
#	269623
#	293064
#	317432
#
# Disc length: 4487 seconds
#
# Revision: 3
# Processed by: cddbd v1.5.2PL0 Copyright (c) Steve Scherf et al.
# Submitted via: CDex 1.50
#
DISCID=f5118511
DTITLE=SALSA CONNECTION - SALSA CONNECTION
DYEAR=2007
DGENRE=Salsa
TTITLE0=QUANTIC and NIKODEMUS - MI SWING ES TROPICAL
TTITLE1=ELVIS CRESPO - SUAVEMENTE
TTITLE2=CELIA CRUZ - LA MEDICINA CUBANA
TTITLE3=SANTANA - OYE COMO VA
TTITLE4=GLORIA ESTEFAN - OYE
TTITLE5=THE BLACKOUT ALL STARS - I LIKE IT
TTITLE6=DLG FEAT HUEY - MUEVETE
TTITLE7=CHEITO - BAILI SONERO
TTITLE8=ORQUESTA DE LA LUZ - SALSA NO TIENE FRONTERA
TTITLE9=ALBITA - QUE MANERA DE QUERERTE
TTITLE10=VICTOR MANUELLE - POR ELLA
TTITLE11=LOS SUPER SEVEN - EL QUE SIEMBRA SU MAIZ
TTITLE12=OSCAR D'LEON - MI RAZA NEGRA
TTITLE13=TITO PUENTE - COMPLICACION
TTITLE14=RUBEN BLADES - TODO A NADA
TTITLE15=RAY BARRETTO - LA CUNA
TTITLE16=DIEGO PELAEZ - ABRE LA PUERTA
EXTD=YEAR: 2007
EXTT0=
EXTT1=
EXTT2=
EXTT3=
EXTT4=
EXTT5=
EXTT6=
EXTT7=
EXTT8=
EXTT9=
EXTT10=
EXTT11=
EXTT12=
EXTT13=
EXTT14=
EXTT15=
EXTT16=
PLAYORDER=
